/* XPM */
static char *result[] = {
/* columns rows colors chars-per-pixel */
"32 32 155 2 ",
"   c #29058A",
".  c #2A058A",
"X  c #2B058A",
"o  c #2B058B",
"O  c #2C058B",
"+  c #2D058B",
"@  c #2E058B",
"#  c #2F058B",
"$  c #31058B",
"%  c #33058B",
"&  c #34058B",
"*  c #33058C",
"=  c #34058C",
"-  c #35058C",
";  c #39058C",
":  c #3A058C",
">  c #3E058D",
",  c #3F058D",
"<  c #40058D",
"1  c #41058D",
"2  c #44058D",
"3  c #44058E",
"4  c #45058E",
"5  c #46058E",
"6  c #4C058F",
"7  c #4D058F",
"8  c #4E058F",
"9  c #4F058F",
"0  c #50058F",
"q  c #51058F",
"w  c #52058F",
"e  c #540590",
"r  c #5A0490",
"t  c #5B0490",
"y  c #5C0490",
"u  c #5F0492",
"i  c #610492",
"p  c #630492",
"a  c #660492",
"s  c #670492",
"d  c #4E3AAB",
"f  c #2B40A9",
"g  c #2A4EAF",
"h  c #374FB2",
"j  c #2B54B2",
"k  c #2F5EB9",
"l  c #3E59B8",
"z  c #3E5BB9",
"x  c #3D5DBA",
"c  c #2A61B9",
"v  c #3569BE",
"b  c #4D45B0",
"n  c #5B50BA",
"m  c #6946B4",
"M  c #694AB6",
"N  c #6656BC",
"B  c #7B7FBE",
"V  c #346CC0",
"C  c #2E78C5",
"Z  c #397DCA",
"A  c #5571CA",
"S  c #646AC5",
"D  c #7075C4",
"F  c #607FD1",
"G  c #820496",
"H  c #860497",
"J  c #870497",
"K  c #8D0397",
"L  c #880497",
"P  c #890497",
"I  c #8B0497",
"U  c #8D0398",
"Y  c #900398",
"T  c #920398",
"R  c #930398",
"E  c #940398",
"W  c #9A039A",
"Q  c #9D0399",
"!  c #9F0399",
"~  c #9E039A",
"^  c #A00399",
"/  c #A2039A",
"(  c #A7039B",
")  c #A8039B",
"_  c #A9039B",
"`  c #AA039B",
"'  c #AD039C",
"]  c #AE039C",
"[  c #AF039C",
"{  c #AA099D",
"}  c #B0039C",
"|  c #B4039C",
" . c #B5039C",
".. c #B5039D",
"X. c #B9039D",
"o. c #BA039D",
"O. c #BD029E",
"+. c #BD039E",
"@. c #BE029E",
"#. c #C0029E",
"$. c #C1029E",
"%. c #C3029F",
"&. c #C4029F",
"*. c #C5029F",
"=. c #C6029F",
"-. c #9D46AA",
";. c #8E5EB0",
":. c #A34CAC",
">. c #A250AD",
",. c #A656B0",
"<. c #8160B4",
"1. c #8A73B6",
"2. c #897AB7",
"3. c #A265B3",
"4. c #2D88CE",
"5. c #2D89CE",
"6. c #328CD1",
"7. c #318FD2",
"8. c #3191D3",
"9. c #3694D5",
"0. c #3697D6",
"q. c #2DA5DD",
"w. c #2EB1E3",
"e. c #3DB0E6",
"r. c #3CB2E8",
"t. c #30BBE9",
"y. c #4482D0",
"u. c #5380D2",
"i. c #5183D3",
"p. c #5F8CD7",
"a. c #4290D6",
"s. c #6B8FCE",
"d. c #6C8CCD",
"f. c #798FC3",
"g. c #6A92D0",
"h. c #75A1C8",
"j. c #74A6CA",
"k. c #7FB0C4",
"l. c #7CBCC7",
"z. c #4E9DE0",
"x. c #2AD4F4",
"c. c #77F1D1",
"v. c #77F2D0",
"b. c #839CBE",
"n. c #8E9CBE",
"m. c #8D9FBE",
"M. c #9394BD",
"N. c #9096BD",
"B. c #919ABE",
"V. c #88A6C0",
"C. c #87AAC1",
"Z. c #8AAAC1",
"A. c #82BCC5",
"S. c #81C5C7",
"D. c None",
/* pixels */
"D.D.D.D.D.D.D.D.D.D.D.D.D.D.D.D.D.D.D.D.D.D.D.D.D.D.D.D.D.D.D.D.",
"D.D.D.D.D.D.D.D.D.D.D.%.&.*.D.D.D.D.&.&.%.D.D.D.D.D.D.D.D.D.D.D.",
"D.D.D.D.D.D.D.D.D.#.D.D.%.&.*.*.=.&.&.D.D.D.#.D.D.D.D.D.D.D.D.D.",
"D.D.D.D.D.D.D.+.D.D.$.D.D.D.D.D.D.D.D.D.D.$.D.D.+.D.D.D.D.D.D.D.",
"D.D.D.D.D.D.X.D.+.D.D.%.&.D.D.D.D.D.&.D.D.D.D.O.D.X.D.D.D.D.D.D.",
"D.D.D.D.D...D.D.D.@.#.D.D.&.*.*.*.*.D.D.D.D.D.D.X.D. .D.D.D.D.D.",
"D.D.D.D.} D.D.D.o.D.D.D.D.D.D.D.D.D.D.D.$.D.D.o.D.| D.} D.D.D.D.",
"D.D.D.` D.D.D...D.D.D.D.D.D.D.D.D.D.D.D.D.D.o.D.| D.[ D.` D.D.D.",
"D.D.D.D._ D.] D...D.D.D.D.D.D.D.D.D.D.D.D.D.D...D.] D.) D.D.D.D.",
"D.D.^ D.D.( D.' D.D.B.c.,.D.D.D.D.D.D.3.v.M.D.D.] D.D.D.D.! D.D.",
"D.D.D.Q D./ D.D.D.D.Z.:.N.D.D.D.D.D.D.n.>.m.D.D.D.D./ D.Q D.D.D.",
"D.E D.D.W D.~ D.D.D.A.{ S.D.D.D.D.D.D.V.-.C.D.D.D.! D.D.D.D.R D.",
"D.K Y D.T D.D.D.D.D.l.D.b.;.D.D.D.D.1.2.D.k.D.D.D.D.D.R D.D.U D.",
"D.D.L D.D.K D.D.D.D.j.D.<.B D.D.D.D.f.D.D.h.D.D.D.D.D.I D.P J D.",
"D.D.G D.D.H D.D.D.D.d.D.D.g.D.D.D.D.D D.D.s.D.D.D.D.D.D.D.D.D.D.",
"D.D.D.D.D.D.D.D.D.D.F D.D.S m D.D.N M D.D.p.D.D.D.D.D.D.D.D.D.D.",
"D.D.D.D.D.D.D.D.D.D.i.D.D.n A D.D.u.D.D.D.z.D.D.D.D.D.D.D.D.D.D.",
"D.D.D.D.D.D.D.D.D.b a.D.D.D.e.D.d y.D.D.D.r.D.D.D.D.D.D.D.D.D.D.",
"D.D.a D.D.i D.D.D.x 9.D.D.D.0.l Z z D.D.D.t.D.D.D.D.D.p D.a s D.",
"D.i u D.y D.D.D.D.V 7.D.D.D.v 6.8.D.D.D.D.w.h D.D.D.D.t D.D.i D.",
"D.r D.D.e D.0 D.D.C 5.D.D.D.D.x.4.D.D.D.D.q.k D.D.0 D.D.D.D.r D.",
"D.D.D.q D.7 D.D.D.g j D.D.D.D.c D.D.D.D.D.c f D.D.D.6 D.w D.D.D.",
"D.D.9 D.D.5 D.1 D.D.D.D.D.D.D.D.D.D.D.D.D.D.D.D.< D.D.D.D.8 D.D.",
"D.D.D.D.4 D., D.; D.D.D.D.D.D.D.D.D.D.D.D.D.D.; D.< D.4 D.D.D.D.",
"D.D.D.2 D., D.; D.= D.D.D.D.D.D.D.D.D.D.D.D.* D.: D., D.3 D.D.D.",
"D.D.D.D.> D.: D.% D.D.+ D.D.D.D.D.D.D.D.D.D.D.& D.D.D., D.D.D.D.",
"D.D.D.D.D.; D.= D.D.D.D.D..         . D.D.# D.D.D.D.; D.D.D.D.D.",
"D.D.D.D.D.D.- D.$ D.D.D.D.D.D.D.D.D.D.o D.D.D.$ D.- D.D.D.D.D.D.",
"D.D.D.D.D.D.D.$ D.D.O D.D.D.D.D.D.D.D.D.D.O D.D.$ D.D.D.D.D.D.D.",
"D.D.D.D.D.D.D.D.D.@ D.D.            . . D.D.@ D.D.D.D.D.D.D.D.D.",
"D.D.D.D.D.D.D.D.D.D.D.X . D.D.D.D.D.D.. X D.D.D.D.D.D.D.D.D.D.D.",
"D.D.D.D.D.D.D.D.D.D.D.D.D.D.D.D.D.D.D.D.D.D.D.D.D.D.D.D.D.D.D.D."
};
