/* XPM */
static char *result[] = {
/* columns rows colors chars-per-pixel */
"64 64 176 2 ",
"   c #2B058A",
".  c #290E8F",
"X  c #33058C",
"o  c #3B058D",
"O  c #310A8E",
"+  c #291E97",
"@  c #291F98",
"#  c #291693",
"$  c #341D99",
"%  c #292199",
"&  c #382A9F",
"*  c #3738A6",
"=  c #44058E",
"-  c #4C058F",
";  c #51058F",
":  c #400D91",
">  c #540590",
",  c #5C0491",
"<  c #441395",
"1  c #501799",
"2  c #551799",
"3  c #630492",
"4  c #6A0493",
"5  c #610894",
"6  c #720493",
"7  c #7E0495",
"8  c #770997",
"9  c #6D169D",
"0  c #661A9E",
"q  c #7D149D",
"w  c #42249D",
"e  c #4F26A0",
"r  c #5829A4",
"t  c #4634A6",
"y  c #513EAE",
"u  c #6821A2",
"i  c #7929A5",
"p  c #753EAF",
"a  c #3F41AC",
"s  c #3A4AAF",
"d  c #3B4CB1",
"f  c #2C59B5",
"g  c #3557B6",
"h  c #2E61BA",
"j  c #3168BE",
"k  c #3966BE",
"l  c #434BB1",
"z  c #5B4BB7",
"x  c #4A52B7",
"c  c #4A5ABB",
"v  c #545ABE",
"b  c #6A4AB7",
"n  c #7E5EB5",
"m  c #7566BB",
"M  c #7B7ABD",
"N  c #2B6EC1",
"B  c #3E68C0",
"V  c #306DC1",
"C  c #2E76C4",
"Z  c #3877C6",
"A  c #3279C7",
"S  c #5B5FC2",
"D  c #5F75CD",
"F  c #6566C5",
"G  c #6C77C7",
"H  c #6878CB",
"J  c #727CC4",
"K  c #850496",
"L  c #8B0397",
"P  c #8E0398",
"I  c #890C9A",
"U  c #900397",
"Y  c #930398",
"T  c #9B0399",
"R  c #92129D",
"E  c #A4039A",
"W  c #AB039B",
"Q  c #A50B9D",
"!  c #AE089D",
"~  c #B4039C",
"^  c #BC039E",
"/  c #AB119F",
"(  c #821DA0",
")  c #AF1AA2",
"_  c #B61BA3",
"`  c #8526A3",
"'  c #9721A1",
"]  c #8B3DAA",
"[  c #8C33A6",
"{  c #913FA8",
"}  c #9F31A5",
"|  c #B22BA7",
" . c #A83AA9",
".. c #B138A9",
"X. c #B234A9",
"o. c #C4029F",
"O. c #8248AE",
"+. c #9847AB",
"@. c #9A54AE",
"#. c #9350AC",
"$. c #9E58B0",
"%. c #A346AB",
"&. c #A54AAC",
"*. c #AB44AC",
"=. c #A653AF",
"-. c #9262B0",
";. c #9A6AB3",
":. c #8777B7",
">. c #8D70B3",
",. c #9377B6",
"<. c #2B83CB",
"1. c #3287CE",
"2. c #3688CF",
"3. c #3295D5",
"4. c #3798D7",
"5. c #3A9CDA",
"6. c #2EA3DC",
"7. c #2BABDF",
"8. c #36A3DD",
"9. c #3BA8E1",
"0. c #2DB3E4",
"q. c #4E8AD6",
"w. c #468CD5",
"e. c #5987D6",
"r. c #4799DD",
"t. c #5A96DD",
"y. c #5A99DE",
"u. c #5397DE",
"i. c #6985CD",
"p. c #708ACA",
"a. c #6D98CF",
"s. c #7D9DC3",
"d. c #739CC9",
"f. c #6482D1",
"g. c #6797D6",
"h. c #6197DB",
"j. c #669ED8",
"k. c #659CD7",
"l. c #6FAECF",
"z. c #78A9C8",
"x. c #73A1CB",
"c. c #74BCCD",
"v. c #6AACD6",
"b. c #6BA4D4",
"n. c #6DBED4",
"m. c #47AFE9",
"M. c #51A2E4",
"N. c #48B0EA",
"B. c #2BC4EC",
"V. c #3EC1EF",
"C. c #3EC0F0",
"Z. c #36CBF3",
"A. c #2BD5F5",
"S. c #2DDDFA",
"D. c #2AD9F7",
"F. c #35D1F6",
"G. c #2AE3FC",
"H. c #76CCCD",
"J. c #7DDDCD",
"K. c #71CBD2",
"L. c #72D3D3",
"P. c #78E0CD",
"I. c #79EBCF",
"U. c #73E4D3",
"Y. c #75ECD0",
"T. c #75F4D2",
"R. c #75F8D2",
"E. c #8B86B9",
"W. c #888EBC",
"Q. c #9584B9",
"!. c #968CBB",
"~. c #8998BD",
"^. c #809AC0",
"/. c #88ACC2",
"(. c #81C7C8",
"). c None",
/* pixels */
").).).).).).).).).).).).).).).).).).).).).).).).).).).).).).).).).).).).).).).).).).).).).).).).).).).).).).).).).).).).).).).).",
").).).).).).).).).).).).).).).).).).).).).).).).).).).).).).o.o.o.o.).).).).).).).).).).).).).).).).).).).).).).).).).).).).).).",
").).).).).).).).).).).).).).).).).).).).).).).).o.o.o.o.o.o.o.o.o.o.o.o.o.o.o.o.).).).).).).).).).).).).).).).).).).).).).).).).",
").).).).).).).).).).).).).).).).).).).).).o.o.o.o.).).).).).).).).).).).).).).o.o.o.o.).).).).).).).).).).).).).).).).).).).).).",
").).).).).).).).).).).).).).).).).).).o.o.).).).).).).o.o.o.o.o.o.o.o.o.o.).).).).).o.o.o.).).).).).).).).).).).).).).).).).).).",
").).).).).).).).).).).).).).).).).o.o.).).).).o.o.o.o.o.).).).).).).).o.o.o.o.o.o.).).).).^ o.).).).).).).).).).).).).).).).).).",
").).).).).).).).).).).).).).).^ ^ ).).).).o.o.o.).).).).).).).).).).).).).).).).o.o.o.).).).^ ^ ^ ).).).).).).).).).).).).).).).",
").).).).).).).).).).).).).).^ ^ ).).o.o.^ ).).).).).).).).o.o.o.o.o.o.).).).).).).).).o.o.).).).^ ^ ).).).).).).).).).).).).).).",
").).).).).).).).).).).).^ ^ ).).).o.^ ).).).).).o.o.o.o.o.o.o.).).o.o.o.o.o.o.).).).).).).^ o.).).).^ ).).).).).).).).).).).).).",
").).).).).).).).).).).^ ~ ).).^ ^ ).).).).).o.o.o.).).).).).).).).).).).).).).).).).).).).).^ ^ ).).).^ ^ ).).).).).).).).).).).",
").).).).).).).).).).~ ^ ).).).^ ).).).).o.o.).).).).).).).).o.o.o.o.).).).).).).).).).).).).).).^ ^ ).).~ ~ ).).).).).).).).).).",
").).).).).).).).).~ ~ ).).).).).).).^ ^ ).).).).).o.o.o.o.o.o.o.o.o.o.o.o.o.o.).).).).).).^ ).).).~ ^ ).).~ ~ ).).).).).).).).).",
").).).).).).).).~ ~ ).).).).).).).^ ^ ).).).).).).o.).).).).).).).).).).).).o.o.o.).).).).o.^ ).).).~ ~ ).).~ ).).).).).).).).).",
").).).).).).).).W ).).).).).).^ ^ ).).).).).).).).).).).).).).).).).).).).).).).o.o.o.).).).^ ^ ).).).~ ~ ).).W ).).).).).).).).",
").).).).).).).W ).).~ ).).).~ ~ ).).).).).).).).).).).).).).).).).).).).).).).).).).o.o.o.).).).~ ).).).~ W ).).W ).).).).).).).",
").).).).).).W W ).W W ).).~ ~ ).).).^ ).).).).).).).).).).).).).).).).).).).).).).).).).^ ^ ).).).~ ).).).W ).).W W ).).).).).).",
").).).).).).E ).).W ).).).~ ).).).~ ~ ).).).).).).).).).).).).).).).).).).).).).).).).).).~ ~ ).).).~ ).).).W ).).E ).).).).).).",
").).).).).E ).).W ).).).W ).).).~ ~ ).).o.o.o.o.).).).).).).).).).).).).).).).o.o.o.o.).).).~ ~ ).).W W ).).E W ).E E ).).).).).",
").).).).T E ).E E ).).W W ).).~ ~ ).).).X.I.I.I...).).).).).).).).).).).).).).=.(.R.I._ ).).).~ ~ ).).W E ).).E ).).E ).).).).).",
").).).).E ).).E ).).).E ).).W W ).).).).*.R.R.R.!.).).).).).).).).).).).).).)./.R.R.R.| ).).).).W ).).).W ).).).E ).T T ).).).).",
").).).).T ).T T ).).E ).).).W ).).).).).=.R.&.Q.J.^ ).).).).).).).).).).).)._ R.=.Q.R. .).).).).).W ).).E E ).).T ).).T ).).).).",
").).).T ).).T ).).T E ).).E ).).).).).).;.R.)  .R.%.).).).).).).).).).).).).;.J.^ $.R.&.).).).).).E E ).).E ).).T T ).T T ).).).",
").).).Y ).).T ).).T ).).E T ).).).).).).,.R.) W I.~.).).).).).).).).).).).W (.!.).@.R.@.).).).).).).E ).).T T ).).T ).).Y ).).).",
").).Y Y ).Y ).).).T ).).T ).).).).).).).E.R.W )./.I.Q ).).).).).).).).).).} R.+.).@.R.-.).).).).).).T T ).).T ).).Y ).).Y ).).).",
").).P ).).Y ).).Y Y ).).T ).).).).).).).W.Y.T ).-.T.#.).).).).).).).).).).E.P.Q ).+.T.>.).).).).).).).T ).).Y ).).).Y ).P P ).).",
").).L ).).P ).).Y ).).Y Y ).).).).).).).~.J.T ).' U.^.).).).).).).).).).T H.W.).).{ U.:.).).).).).).).Y ).).Y Y ).).P ).).P ).).",
").).L ).L L ).).P ).).Y ).).).).).).).).x.c.Y ).Y z.K.R ).).).).).).).).] L.] ).).[ L.M ).).).).).).).).U ).).P ).).L ).).L ).).",
").).K ).K ).).).L ).).L ).).).).).).).P d.x.P ).).n n.O.).).).).).).).).J l.P ).).` n.M ).).).).).).).).P ).).L ).).K ).).K ).).",
").K K ).K ).).K K ).).K ).).).).).).).K a.p.L ).).` v.J ).).).).).).).I b.m ).).).( v.J ).).).).).).).).K ).).K ).).K K ).K ).).",
").7 7 ).7 ).).K ).).).).).).).).).).).7 g.G ).).).7 i.j.q ).).).).).).p j.i ).).).( j.G ).).).).).).).).).).).).).).).).).).).).",
").).).).).).).).).).).).).).).).).).).8 h.F ).).).).b h.b ).).).).).).H f.7 ).).).8 h.H 8 ).).).).).).).).).).).).).).).).).).).",
").).).).).).).).).).).).).).).).).).).9 y.F ).).).).u y.H 4 ).).).).9 u.b ).).).).4 t.e.6 ).).).).).).).).).).).).).).).).).).).",
").).).).).).).).).).).).).).).).).).).u M.S ).).).).3 e.M.0 ).).).).z M.u ).).).).4 u.u.4 ).).).).).).).).).).).).).).).).).).).",
").).).).).).).).).).).).).).).).).).).r N.v ).).).).).v m.z ).).).5 q.q.3 ).).).).5 r.m.5 ).).).).).).).).).).).).).).).).).).).",
").).).).).).).).).).).).).).).).).).).z C.c ).).).).).r V.w.).).).2 C.x ).).).).)., r.C.2 ).).).).).).).).).).).).).).).).).).).",
").).).).).).).).).).).).).).).).).).).x F.x ).).).).).; 9.Z.1 ).).c Z.1 ).).).).).).8.Z.e ).).).).).).).4 ).).4 ).).).).).4 ).).",
").).4 ).3 ).).).3 ).).5 ).).).).).).).k S.l ).).).).).).S D.d ).).8.4.).).).).).).).5.S.t ).).).).).).).5 ).).3 ).).3 ).).4 ).).",
").).3 ).3 3 ).).3 ).).3 ).).).).).).).Z S.l ).).).).).).w G.1.).< S.d ).).).).).).).3.G.l ).).).).).).)., ).).5 ).).3 ).).3 ).).",
").).3 ).).5 ).)., ).)., ).).).).).).).2.G.* ).).).).).).o 0.B.o d A.: ).).).).).).).1.G.s ).).).).).)., ).).)., ).).5 ).).3 ).).",
").).5 ).)., ).)., , ).).> ).).).).).).3.G.& ).).).).).).).k G.g 6.1.).).).).).).).).A G.g ).).).).).)., ).)., ).).)., ).3 5 ).).",
").)., , )., ).).).> ).).; ).).).).).).7.G.$ ).).).).).).).$ G.G.G.* ).).).).).).).).V G.j ).).).).).; > ).).> ).)., ).)., ).).).",
").).)., ).).> ).).> ).).; - ).).).).X 0.G.O ).).).).).).).).7.G.B.X ).).).).).).).).h G.C ).).).).).- ).).; > ).).> ).)., ).).).",
").).).> ).).> ).).- - ).).- ).).).).  B.D.  ).).).).).).).).f D.N ).).).).).).).).).f G.<.).).).).- - ).).- ).).> > ).> > ).).).",
").).).).> ).; - ).).- ).).).= ).).).  @ @ ).).).).).).).).).      ).).).).).).).).).. % # ).).).).= ).).- - ).).; ).).> ).).).).",
").).).).; ).).- ).).).- ).).= = ).).).).).).).).).).).).).).).).).).).).).).).).).).).).).).).).= = ).).- ).).).- ).).; ).).).).",
").).).).- - ).- - ).).= = ).).o o ).).).).).).).).).).).).).).).).).).).).).).).).).).).).).).o o ).).= = ).).- ).).- ).).).).).",
").).).).).- ).).- ).).).= ).).).o ).).).).).).).).).).).).).).).).).).).).).).).).).).).).).o o ).).= = ).).= = ).).- ).).).).).",
").).).).).- = ).).= ).).).o ).).).o o ).).).).).).).).).).).).).).).).).).).).).).).).).).X o ).).).o ).).).= ).).- ).).).).).).",
").).).).).).= ).).= = ).).o o ).).).X X ).).).).).).).).).).).).).).).).).).).).).).).).X o ).).).o ).).).= ).).= = ).).).).).).",
").).).).).).).= ).).o o ).).X o ).).).X X ).).).).).).).).).).).).).).).).).).).).).).).).).).).o ).).).o o ).).= ).).).).).).).",
").).).).).).).o = ).).o o ).).X X ).).).).  X ).).).).).).).).).).).).).).).).).).).).).).).X X ).).).).).).).= ).).).).).).).).",
").).).).).).).).o o ).).o o ).).).X X ).).).).      ).).).).).).).).).).).).).).).).).).).X X ).).).).).).).o ).).).).).).).).).",
").).).).).).).).).o o ).).X X ).).).X ).).).).).).                          ).).).).).X X   ).).).).).).).o o ).).).).).).).).).",
").).).).).).).).).).o o ).).X X ).).).).).).).).).).).).).          ).).).).).).).      ).).).).).).).).o o ).).).).).).).).).).",
").).).).).).).).).).).o X ).).X X ).).).).).).).).).).).).).).).).).).).).).).      ).).).).X X ).).).X X ).).).).).).).).).).).",
").).).).).).).).).).).).X X ).).).X   ).).).).).).          ).).).              ).).).).).X   ).).).X X ).).).).).).).).).).).).",
").).).).).).).).).).).).).).X X ).).  X   ).).).).).).).              ).).).).).).).).    ).).).X X ).).).).).).).).).).).).).).",
").).).).).).).).).).).).).).).  X ).).).    X   ).).).).).).).).).).).).).).).).    X ).).).).  X ).).).).).).).).).).).).).).).",
").).).).).).).).).).).).).).).).).  X ).).).).          ).).).).).).).).          ).).).).  X ).).).).).).).).).).).).).).).).).",
").).).).).).).).).).).).).).).).).).      ).).).).).).                    ).).).).).    X ).).).).).).).).).).).).).).).).).).).",
").).).).).).).).).).).).).).).).).).).).).      ).).).).).).).).).).).).).).).        ).).).).).).).).).).).).).).).).).).).).).",
").).).).).).).).).).).).).).).).).).).).).).).).                                ).).).).).).).).).).).).).).).).).).).).).).).).",
").).).).).).).).).).).).).).).).).).).).).).).).).).).).).            ).).).).).).).).).).).).).).).).).).).).).).).).).).).).).",
").).).).).).).).).).).).).).).).).).).).).).).).).).).).).).).).).).).).).).).).).).).).).).).).).).).).).).).).).).).).).).).)."
};
