/* XPM */
static char *result[] = {
/* columns rows colors chars-per-pixel */
"16 16 23 1 ",
"  c #2B7EC9",
". c #3872C4",
"X c #367ECA",
"o c #4D6BC5",
"O c #4A7DCE",
"+ c #4C7DCF",
"@ c #6B6AC3",
"# c #6C6BC2",
"$ c #6A6EC5",
"% c #8474B7",
"& c #827ABA",
"* c #947AB6",
"= c #947EB7",
"- c #2C89CE",
"; c #329EDA",
": c #4B85D3",
"> c #8185BD",
", c #8187BC",
"< c #8F89BA",
"1 c #8C99BD",
"2 c #9496BD",
"3 c #9496BE",
"4 c None",
/* pixels */
"4444444444444444",
"4444444444444444",
"4444444444444444",
"4444444444444444",
"4444434444244444",
"44444*144<=44444",
"44444,&44%>44444",
"44444$#444@44444",
"44444+4Oo4:44444",
"4444444X.4;44444",
"4444444-44 44444",
"4444444444444444",
"4444444444444444",
"4444444444444444",
"4444444444444444",
"4444444444444444"
};
